<svg width="540" height="390" xmlns="http://www.w3.org/2000/svg" xmlns:xlink="http://www.w3.org/1999/xlink">
 <defs>
  <symbol id="svg_1" xmlns:xlink="http://www.w3.org/1999/xlink">
   <g>
    <path fill="#b1e721" d="m69.14472,45.04813c-2.123901,2.749487 -0.965405,31.513525 1.73775,44.344556c0.514875,2.326489 0.901044,4.793994 0.901044,5.498974c0,2.044507 1.866473,10.786548 4.827075,22.983032c7.530225,30.385547 20.852918,56.329566 35.591565,69.231079c6.17865,5.428516 8.109461,6.768018 15.060449,10.504529c10.812622,5.921997 19.179541,7.966516 32.373511,7.966516c15.961511,0 26.452332,-3.454528 35.012317,-11.562036c6.693555,-6.274511 5.535034,-6.062988 15.189185,-3.102002c4.440893,1.339527 14.481201,2.326514 16.476391,1.551001c2.445703,-0.916504 3.79729,-4.018481 3.79729,-8.8125c0,-3.172509 -0.257446,-4.511987 -1.09414,-5.2875c-1.094117,-0.987011 -9.139258,-3.384008 -11.520606,-3.384008c-1.802099,0 -9.3323,-2.749512 -11.005713,-3.947999c-1.415918,-0.986987 -1.480273,-1.410009 -1.480273,-12.337524c0,-15.862524 -1.737769,-23.75852 -8.881812,-40.044043c-7.208423,-16.638013 -19.758789,-31.372534 -31.665551,-37.224048c-5.728125,-2.890503 -14.095032,-5.851513 -16.412024,-5.851513c-0.643616,0 -2.638819,-0.422998 -4.440918,-0.986988c-3.089319,-0.987011 -8.238184,-1.973999 -17.441797,-3.313501c-4.69834,-0.705005 -13.322693,-2.538012 -16.025867,-3.384009c-7.015332,-2.256005 -9.58977,-3.242993 -13.901941,-5.217016c-7.208423,-3.242993 -13.837585,-7.755005 -20.080597,-13.606494c-3.089325,-2.890503 -5.728119,-5.217017 -5.921203,-5.217017c-0.128724,0 -0.643604,0.493506 -1.094135,1.198511zm43.507959,72.544556c5.663757,5.358032 12.228577,10.998022 18.021057,15.43955c5.792481,4.511988 10.683899,8.107471 11.005713,8.107471c0.064356,0 1.415918,0.916504 2.960596,2.044531c8.817444,6.415503 26.516662,15.862525 39.775024,21.220533c7.723303,3.101977 8.688733,3.736499 8.8818,5.569482c0.321826,2.396997 -1.86648,7.050024 -3.475489,7.543506c-2.510071,0.705029 -9.654138,-2.185474 -21.174743,-8.530518c-18.342835,-10.152002 -33.467652,-22.630517 -51.424329,-42.370532c-7.916394,-8.671509 -11.97113,-13.74751 -11.97113,-14.946021c0,-0.916503 0.257446,-0.845996 1.480297,0.282007c0.772327,0.775489 3.475489,3.313526 5.921204,5.639991z"/>
    <path fill="#b1e721" d="m281.92182,90.309165c-15.639722,2.185498 -29.091138,11.139014 -34.239991,22.842017c-3.218041,7.191015 -5.213232,20.022046 -3.346777,21.291064c0.321802,0.281983 1.995191,-0.916504 3.668579,-2.60852c3.218042,-3.243018 12.679077,-11.280005 14.288111,-12.055518c0.514892,-0.282007 1.866455,-1.128003 2.89624,-1.833008c7.337134,-5.217016 23.68479,-10.645508 31.858642,-10.645508c3.539844,0 4.247803,1.269019 1.222852,2.114991c-1.737744,0.564013 -12.099854,6.13352 -16.669458,8.953515c-1.609009,0.987012 -6.629199,4.511988 -11.263159,7.825513c-12.872193,9.235522 -24.457154,22.630518 -30.635767,35.250049c-1.029785,2.11499 -1.866504,4.300512 -1.866504,4.794018c0,1.057495 3.346778,3.807007 4.634009,3.807007c1.158472,0 2.574439,-1.692016 4.119092,-4.935034c1.737744,-3.454492 6.950976,-12.055518 8.624341,-13.959009c1.544677,-1.833008 1.866504,-1.833008 4.634008,-0.564013c5.341944,2.538012 9.139234,3.243017 16.926905,3.243017c6.500439,0 8.56001,-0.282007 11.391894,-1.480493c8.688721,-3.595532 14.867359,-11.63252 20.852906,-27.142554c1.351586,-3.454492 3.218042,-7.614013 4.247827,-9.306006c0.965429,-1.692016 1.802099,-3.242993 1.802099,-3.454492c0,-1.198511 6.693531,-8.671509 10.490845,-11.703027c2.574414,-2.11499 4.312158,-3.947998 4.183423,-4.582495c-0.257446,-1.269019 -5.406299,-3.172486 -13.065234,-4.723511c-6.436109,-1.268994 -28.318799,-1.973999 -34.754883,-1.128003z"/>
   </g>
   <g fill="#81a3bd">
    <path d="m5.684883,188.797788c-0.643601,0.35249 -0.836685,16.497022 -0.836685,77.47959l0,77.05658l1.4803,0.423004c2.316987,0.704986 55.092913,0.423004 60.177428,-0.281983c15.189166,-2.256012 17.377442,-2.749511 24.006604,-6.20401c8.238196,-4.230011 14.803015,-12.831024 18.407215,-24.181549c1.351574,-4.371002 1.609021,-6.415497 1.609021,-14.02951c0.064367,-7.331995 -0.193079,-9.658509 -1.351575,-13.253992c-3.28241,-10.434021 -8.753089,-16.99054 -18.729016,-22.419043c-4.569629,-2.467493 -4.633991,-2.467493 -3.475489,-3.948022c0.707972,-0.775489 1.930823,-1.832984 2.831885,-2.326478c1.995178,-1.128027 7.144055,-6.909033 9.139234,-10.222509c2.123913,-3.454529 3.024963,-5.992517 4.440905,-11.632532c1.480298,-6.204016 1.480298,-8.601013 0,-14.804993c-4.440905,-18.11853 -14.545568,-27.777038 -32.244793,-30.808557c-4.312183,-0.705005 -64.039095,-1.480517 -65.455034,-0.845996zm63.009306,19.246533c10.619556,2.467493 14.803009,6.908997 17.248718,18.259522c1.094147,5.146484 -0.064361,11.209472 -2.960601,16.073999c-3.346753,5.499023 -6.693525,7.543518 -15.446607,9.729004c-3.668567,0.916504 -8.559997,1.128027 -24.00661,1.128027l-19.372635,0l-0.6436,-1.833008c-0.38617,-0.986999 -0.643616,-10.363525 -0.643616,-21.432043c0,-11.068506 0.257446,-20.445008 0.643616,-21.432007l0.6436,-1.833008l19.436997,0c16.283313,0.070496 20.402404,0.281983 25.100738,1.339514zm6.950989,65.494568c5.728119,2.396997 7.401489,3.524988 10.169006,6.768006c4.891437,5.781005 5.599408,8.037011 5.599408,18.048028c0,8.248505 -0.128723,9.023987 -1.802112,12.619507c-3.218042,6.626984 -7.144049,9.940521 -15.4466,12.760498c-3.668579,1.269012 -5.985565,1.410004 -27.224658,1.410004l-23.298645,0l-0.38617,-1.621491c-0.193084,-0.846008 -0.386169,-12.478515 -0.386169,-25.944031c0,-18.541497 0.193085,-24.534027 0.8367,-25.239007c0.579239,-0.705017 5.856842,-0.846008 24.585865,-0.564026c22.26886,0.211511 24.070965,0.352502 27.353375,1.762512z"/>
    <path d="m168.968451,229.405833c-17.119996,3.172485 -29.799073,14.664025 -35.720276,32.289025c-2.831885,8.319007 -3.732947,16.144532 -3.411133,29.539551c0.386169,15.580506 2.445703,23.970032 8.366907,33.62854c8.495642,13.888489 22.397583,21.432007 39.775024,21.432007c19.436987,0 34.304346,-9.235504 41.577148,-25.873535c2.123902,-4.864502 2.76753,-6.908997 2.252637,-7.543488c-0.836719,-1.12799 -5.985571,-2.326507 -11.778052,-2.890503c-4.762695,-0.423004 -4.89143,-0.281982 -7.916381,6.20398c-1.673413,3.525024 -7.787696,9.79953 -11.391871,11.562042c-7.916418,3.947998 -17.313085,4.018494 -25.293859,0.140991c-3.539832,-1.762512 -8.624366,-6.274505 -11.198792,-10.010986c-3.990356,-5.922028 -7.465857,-16.567535 -7.01532,-21.996033l0.193079,-2.820007l37.651123,-0.352502l37.651123,-0.352515l-0.064355,-9.165003c0,-6.345007 -0.386182,-10.927526 -1.222876,-14.805029c-3.86167,-18.259521 -14.996094,-32.148035 -29.541651,-37.012536c-8.495642,-2.820008 -15.317871,-3.384009 -22.912475,-1.973999zm17.634887,16.779016c6.243018,2.326513 12.807837,8.601013 15.124805,14.452514c1.673389,4.300513 3.282422,10.645545 3.282422,13.183533l0,2.678992l-26.838501,0.141015c-28.833679,0.070472 -29.219849,0.070472 -29.927832,-0.705017c-0.25741,-0.282007 -0.064356,-2.537988 0.386169,-5.076013c2.059571,-11.561987 8.946167,-20.797522 18.471595,-24.604529c4.891418,-1.903503 14.481201,-1.973999 19.501342,-0.070495z"/>
   </g>
   <g fill="#ddd">
    <path fill="#81a3bd" d="m300.522088,189.220811c-0.643579,1.127978 -1.094116,13.606494 -0.579223,16.637988l0.386157,2.326513l8.173852,-0.211486l8.173829,-0.211524l0.19309,-8.742004c0.128711,-5.781006 -0.06438,-9.024024 -0.579272,-9.658496c-0.965405,-1.339527 -15.060449,-1.41001 -15.768433,-0.140991z"/>
    <path d="m262.935345,193.944285c-0.514868,0.211511 -2.188281,1.339502 -3.73291,2.396997c-1.480322,1.057531 -3.86167,2.60852 -5.213232,3.384009c-1.415967,0.775512 -3.282422,2.18551 -4.183472,3.102014l-1.673364,1.691992l0,12.549011c0,6.909021 -0.257447,12.901514 -0.514893,13.39502c-0.321826,0.493493 -2.574438,0.916504 -5.921216,1.057495l-5.470679,0.211511l-0.193066,6.627014c-0.128735,4.018494 0.064356,6.838501 0.450513,7.12052c0.386181,0.211487 2.89624,0.493469 5.663769,0.563989c3.089331,0.140992 5.148853,0.493506 5.470679,1.057496c0.257446,0.42301 0.514893,16.849523 0.514893,36.448547c0.064355,48.574554 0.514843,52.029053 7.852002,58.092071c3.604223,2.960999 9.525439,4.652985 16.2833,4.652985c5.59939,0 10.61958,-1.057495 11.778052,-2.467499c0.772339,-0.846008 -0.064355,-8.882995 -1.222851,-12.690002l-0.90105,-2.820007l-5.856836,-0.423005c-4.312207,-0.281982 -6.243018,-0.704986 -7.465869,-1.762512c-3.346753,-2.749481 -3.346753,-2.890503 -3.539844,-41.877038c-0.128735,-21.432007 0.064355,-36.73053 0.386157,-37.294532c0.450513,-0.775512 2.381348,-1.057519 7.916382,-1.128015c3.990356,0 7.658936,-0.281982 8.109473,-0.564001c0.514892,-0.422998 0.772338,-2.608484 0.772338,-6.838501c0,-5.005493 -0.19309,-6.2745 -1.029785,-6.627014c-0.579248,-0.211487 -4.119067,-0.422998 -7.916382,-0.422998c-4.505273,0 -7.144067,-0.281983 -7.658935,-0.846009c-0.579248,-0.634497 -0.772339,-5.71051 -0.772339,-18.611999c0,-9.799536 -0.193091,-17.977539 -0.450537,-18.118531c-0.321802,-0.211486 -0.965405,-0.141003 -1.480298,0.140992z"/>
    <path d="m383.933831,229.546824c-8.431298,1.833008 -15.446606,6.133508 -20.852929,12.831018c-1.351587,1.692016 -2.767505,3.102026 -3.024951,3.102026c-0.321827,0 -0.579273,-2.890503 -0.579273,-6.345032c0,-6.204016 -0.064355,-6.415503 -1.673389,-7.049987c-1.93081,-0.846009 -11.842382,-0.916541 -13.000878,-0.141028c-0.643628,0.493506 -0.772339,12.196533 -0.643628,56.259094l0.19309,55.624542l6.114283,0.211487c3.346777,0.141022 7.015356,0 8.109472,-0.211487l2.059546,-0.423004l0.257447,-37.153534c0.321801,-35.25003 0.386157,-37.365021 1.673388,-41.454034c1.995191,-6.415528 3.604224,-9.658509 6.371729,-12.267029c5.728125,-5.569495 11.134399,-7.755005 18.98645,-7.755005c8.431299,0 13.193994,2.326502 17.506152,8.600977c3.86167,5.640051 3.86167,5.005529 4.054785,48.856598c0.193018,28.55252 0.450489,40.396514 0.965381,41.101532c1.094092,1.410003 15.124805,0.916503 15.961475,-0.563996c0.386182,-0.634491 0.643603,-16.426514 0.643603,-39.198059c0,-39.903046 -0.321777,-45.895538 -3.024951,-53.862054c-2.767529,-8.459998 -8.56001,-14.452515 -17.24873,-18.118506c-5.985498,-2.467493 -16.476367,-3.383997 -22.848072,-2.044519z"/>
    <path d="m301.230072,232.014353c-1.287207,0.563965 -1.287207,1.268982 -1.287207,55.695032c0,48.222076 0.128735,55.201599 0.965405,55.765594c1.415942,0.986969 14.352466,0.916474 15.317895,-0.141021c0.579248,-0.634491 0.772339,-13.959015 0.772339,-55.695069c0,-53.43905 0,-54.84906 -1.222876,-55.55404c-1.480273,-0.846009 -12.679101,-0.846009 -14.545556,-0.070496z"/>
    <path d="m445.140985,232.014353c-0.83667,0.563965 -0.772266,1.127991 0.193115,3.736475c0.643604,1.692016 1.609033,4.300512 2.123926,5.851538c1.995166,5.851501 2.76748,7.966491 5.66372,16.21499c1.673438,4.653015 3.346827,9.588049 3.86167,10.927527c0.450538,1.339502 1.287207,3.807007 1.866504,5.428528c1.287159,3.877502 2.703125,7.966491 3.861621,11.279992c0.514893,1.480506 1.351563,3.947998 1.866455,5.498999c0.579297,1.551026 2.381348,6.627008 3.990381,11.280024c1.673389,4.653015 3.411133,9.729003 3.990381,11.279998c0.514893,1.551026 1.287207,3.59552 1.609033,4.58252c0.386182,0.986999 0.901075,2.537994 1.158497,3.524994c0.321777,0.986999 1.158496,3.524994 1.93081,5.640014c0.772315,2.114991 1.609033,4.653016 1.930811,5.640015c0.321875,0.986969 1.158545,3.524994 1.866455,5.639984c0.772363,2.115021 1.35166,4.512024 1.35166,5.287506c0,0.775513 -0.579297,3.172516 -1.35166,5.287506c-0.70791,2.114991 -1.54458,4.653016 -1.802051,5.640015c-1.351611,4.58252 -4.247852,10.011047 -6.371777,11.984985c-4.183448,3.736512 -11.971094,5.287537 -17.634864,3.384034c-1.609033,-0.49347 -2.703125,-0.564026 -3.089306,-0.140992c-1.09419,1.198487 0.514892,15.157532 1.866455,16.708496c1.480273,1.621521 8.431299,2.820008 13.193994,2.256043c10.040283,-1.198547 17.313086,-7.966553 23.041162,-21.502564c4.247803,-9.869995 5.213281,-12.478515 9.847266,-26.43753c1.287207,-3.877502 2.76748,-8.248505 3.282373,-9.729004c0.514892,-1.410004 1.287255,-3.807007 1.802148,-5.287506c0.514844,-1.410004 1.351563,-3.947998 1.930762,-5.639984c0.579297,-1.621521 1.480322,-4.230011 1.995215,-5.781037c0.514892,-1.550994 1.415918,-4.088989 1.93081,-5.639984c0.514893,-1.551025 1.415967,-4.089019 1.93086,-5.640014c0.514892,-1.551026 1.415918,-4.159485 1.995166,-5.851502c0.579248,-1.621515 1.415966,-4.159515 1.93081,-5.640008c1.930859,-5.710511 3.024951,-8.671509 3.86167,-10.927491c0.514893,-1.269018 0.901074,-2.890503 0.901074,-3.525024c0,-0.704993 0.386182,-1.833008 0.83667,-2.608521c0.450488,-0.775488 1.480274,-3.454467 2.252637,-5.992492c1.480273,-4.864502 2.445752,-7.896033 4.633984,-14.100012c0.772315,-2.115015 1.609033,-4.653016 1.930811,-5.640015c0.321777,-0.987 1.158545,-3.524988 1.930859,-5.640015c0.772363,-2.11499 1.609033,-4.794006 1.930811,-5.851526c0.321826,-1.127966 0.965429,-2.537963 1.415918,-3.101965c1.480322,-2.044519 -1.029785,-3.031518 -7.59458,-3.031518c-6.886621,0 -8.946192,0.634521 -9.460987,2.960998c-0.193115,0.916504 -0.965478,3.383997 -1.737793,5.499024c-0.772363,2.11499 -1.609033,4.653015 -1.93081,5.640014c-0.321826,0.987 -1.158496,3.524988 -1.93086,5.639978c-0.772314,2.115027 -1.737695,5.146521 -2.252587,6.69751c-0.450586,1.551025 -1.737745,5.498999 -2.896241,8.812537c-1.09414,3.313501 -2.252636,6.768005 -2.574463,7.755004c-0.321777,0.987 -1.158447,3.524988 -1.93081,5.639978c-0.708008,2.115027 -2.05957,6.063025 -2.89624,8.812537c-0.836719,2.67898 -2.123877,6.69751 -2.896241,8.812494c-1.930859,5.569519 -4.569629,14.452515 -5.79248,19.528534c-0.386182,1.692017 -0.901074,3.031494 -1.158496,3.031494c-0.707959,0 -1.995166,-2.537994 -2.638819,-5.428497c-1.222802,-5.075989 -2.574462,-9.729004 -3.926025,-13.606507c-0.772314,-2.11502 -1.608984,-4.864502 -1.93081,-5.992523c-0.321778,-1.198511 -1.158448,-3.877502 -1.930811,-5.992492c-0.708008,-2.115015 -2.05957,-6.133509 -2.89624,-8.812525c-0.836719,-2.749487 -2.123877,-6.69751 -2.89624,-8.8125c-0.772315,-2.115027 -2.059571,-6.13352 -2.896241,-8.8125c-0.836718,-2.749512 -2.188281,-6.69751 -2.89624,-8.812536c-0.772314,-2.114991 -1.608984,-4.864502 -1.930859,-5.992493c-0.321778,-1.198511 -1.158496,-3.877503 -1.930811,-5.992517c-0.772314,-2.11499 -1.67334,-4.864502 -1.995215,-5.992493c-1.158496,-4.230017 -1.222802,-4.230017 -9.718506,-4.441528c-4.376513,-0.070496 -8.302539,0.141015 -8.817431,0.49353z"/>
   </g>
  </symbol>
 </defs>
 <g>
  <use xlink:href="#svg_1" y="-22" x="0"/>
 </g>
</svg>
